<svg id="Layer_1" data-name="Layer 1" xmlns="http://www.w3.org/2000/svg" xmlns:xlink="http://www.w3.org/1999/xlink" viewBox="0 0 490.53 115.73"><defs><style>.cls-1{fill:#fccccc;}.cls-2{fill:url(#linear-gradient);}.cls-3{fill:url(#linear-gradient-2);}</style><linearGradient id="linear-gradient" x1="4.09" y1="104.99" x2="107.17" y2="48.29" gradientUnits="userSpaceOnUse"><stop offset="0" stop-color="#fff8e7"/><stop offset="0.31" stop-color="#fee4db"/><stop offset="0.62" stop-color="#fccccc"/></linearGradient><linearGradient id="linear-gradient-2" x1="381.1" y1="18.59" x2="467.49" y2="69.81" gradientUnits="userSpaceOnUse"><stop offset="0" stop-color="#fff8e7"/><stop offset="0.19" stop-color="#feefe1"/><stop offset="0.5" stop-color="#fdd5d2"/><stop offset="0.59" stop-color="#fccccc"/></linearGradient></defs><title>Artboard 1</title><path class="cls-1" d="M166.27,115.35A21.26,21.26,0,0,1,145,94.09V21.67a21.26,21.26,0,1,1,42.52,0V94.09A21.26,21.26,0,0,1,166.27,115.35Z"/><path class="cls-1" d="M221.7,115.35a21.26,21.26,0,0,1-21.26-21.26V21.67a21.26,21.26,0,0,1,42.52,0V94.09A21.26,21.26,0,0,1,221.7,115.35Z"/><path class="cls-1" d="M313.51,28.38a29.31,29.31,0,1,1-29.31,29.31,29.34,29.34,0,0,1,29.31-29.31m0-28.35a57.66,57.66,0,1,0,57.66,57.66A57.66,57.66,0,0,0,313.51,0Z"/><path class="cls-2" d="M129.27,83.81,87.12,10.68A21.26,21.26,0,1,0,50.28,31.91l4.37,7.59a20.84,20.84,0,0,1,2.24,6.05,21.59,21.59,0,0,1,.33,6,18.71,18.71,0,0,1-.8,4.33,17.59,17.59,0,0,1-2.76,5.37,16.53,16.53,0,0,1-5.06,4.34,14.41,14.41,0,0,1-6.08,1.92c-2.3.15-2.67-.47-7.25-1.42a51.72,51.72,0,0,0-8.94-1.12A26.89,26.89,0,0,0,20,65.3a24.46,24.46,0,0,0-6.48,2.23,25.53,25.53,0,0,0-6,40.68,26.35,26.35,0,0,0,18.25,7.16,25.85,25.85,0,0,0,13.06-4,26.15,26.15,0,0,0,5.94-5,32.33,32.33,0,0,0,4.81-7.94c1.11-2.35,1-2.65,1.88-4.5,1.25-2.74,3.13-6.86,6.54-9.46,5.77-4.4,13.48-2.57,14.58-2.29A19.6,19.6,0,0,1,83.76,90L92.43,105a21.26,21.26,0,1,0,36.84-21.23Z"/><path class="cls-3" d="M480.1,3.42A21.26,21.26,0,0,0,451,10.88l-7.56,12.76c-.44.68-.91,1.39-1.4,2.11a16.51,16.51,0,0,1-2.79,3.19,10.85,10.85,0,0,1-1.86,1.29,6.55,6.55,0,0,1-1.53.66A4.18,4.18,0,0,1,434,31a4,4,0,0,1-.86-.25,5.83,5.83,0,0,1-2-1.61,7.8,7.8,0,0,1-1.41-2.44,29.9,29.9,0,0,1-.86-3.57c-.25-1.19-.24-1.19-.36-1.69s-.33-1.34-.84-2.83a33.66,33.66,0,0,0-1.27-3.35,27.42,27.42,0,0,0-5.55-8c-.94-.93-1.82-1.66-2.5-2.22S416.85,4,416.35,3.6a25.67,25.67,0,0,0-35.11,8.8,25.93,25.93,0,0,0-2.72,19.33A26,26,0,0,0,390.38,47.3c.61.33,1.51.8,2.64,1.3a24.35,24.35,0,0,0,5.8,1.89,23.21,23.21,0,0,0,3,.31,36.43,36.43,0,0,0,5.8-.16c1.36-.14,1.1-.19,3.58-.49a19.72,19.72,0,0,1,4.53-.18,11.68,11.68,0,0,1,1.69.29,8.21,8.21,0,0,1,1.92.67,5.92,5.92,0,0,1,1.89,1.41,5.45,5.45,0,0,1,.92,1.48,7.11,7.11,0,0,1,0,4.65,13.87,13.87,0,0,1-.85,2.31l-.32.74-13.09,22.1a21.26,21.26,0,1,0,36.58,21.67l43.08-72.75A21.26,21.26,0,0,0,480.1,3.42Z"/></svg>