<svg id="Layer_1" data-name="Layer 1" xmlns="http://www.w3.org/2000/svg" xmlns:xlink="http://www.w3.org/1999/xlink" viewBox="0 0 499.14 115.65"><defs><style>.cls-1{fill:#fccccc;}.cls-2{fill:url(#linear-gradient);}.cls-3{fill:url(#linear-gradient-2);}</style><linearGradient id="linear-gradient" x1="4.09" y1="104.96" x2="107.17" y2="48.26" gradientUnits="userSpaceOnUse"><stop offset="0" stop-color="#fff3f3"/><stop offset="0.34" stop-color="#fddfdf"/><stop offset="0.62" stop-color="#fccccc"/></linearGradient><linearGradient id="linear-gradient-2" x1="372.49" y1="93.86" x2="475.71" y2="37.09" gradientTransform="matrix(0.56, 0.79, -0.79, 0.56, 242.28, -330.41)" xlink:href="#linear-gradient"/></defs><title>Artboard 1</title><path class="cls-1" d="M166.27,115.31A21.26,21.26,0,0,1,145,94.06V21.64a21.26,21.26,0,1,1,42.52,0V94.06A21.26,21.26,0,0,1,166.27,115.31Z"/><path class="cls-1" d="M221.7,115.31a21.26,21.26,0,0,1-21.26-21.26V21.64a21.26,21.26,0,0,1,42.52,0V94.06A21.26,21.26,0,0,1,221.7,115.31Z"/><path class="cls-1" d="M313.51,28.35a29.31,29.31,0,1,1-29.31,29.31,29.34,29.34,0,0,1,29.31-29.31m0-28.35a57.66,57.66,0,1,0,57.66,57.66A57.66,57.66,0,0,0,313.51,0Z"/><path class="cls-2" d="M129.27,83.77,87.12,10.65A21.26,21.26,0,1,0,50.28,31.88l4.37,7.59a20.84,20.84,0,0,1,2.24,6.05,21.59,21.59,0,0,1,.33,6,18.71,18.71,0,0,1-.8,4.33,17.59,17.59,0,0,1-2.76,5.37,16.53,16.53,0,0,1-5.06,4.34,14.41,14.41,0,0,1-6.08,1.92c-2.3.15-2.67-.47-7.25-1.42a51.72,51.72,0,0,0-8.94-1.12,26.89,26.89,0,0,0-6.31.37,24.46,24.46,0,0,0-6.48,2.23,25.53,25.53,0,0,0-6,40.68,26.35,26.35,0,0,0,18.25,7.16,25.85,25.85,0,0,0,13.06-4,26.15,26.15,0,0,0,5.94-5,32.33,32.33,0,0,0,4.81-7.94c1.11-2.35,1-2.65,1.88-4.5,1.25-2.74,3.13-6.86,6.54-9.46,5.77-4.4,13.48-2.57,14.58-2.29A19.6,19.6,0,0,1,83.76,90L92.43,105a21.26,21.26,0,1,0,36.84-21.23Z"/><path class="cls-3" d="M463.33,103.39l33.94-74a20.67,20.67,0,0,0-10.1-27.32A20.41,20.41,0,0,0,460,12l-3.52,7.68a20,20,0,0,1-3.51,5.14,20.67,20.67,0,0,1-4.5,3.57,17.92,17.92,0,0,1-3.86,1.77,16.91,16.91,0,0,1-5.77.8,16,16,0,0,1-6.25-1.59,14,14,0,0,1-4.91-3.75c-1.41-1.74-1.13-2.37-2.94-6.53a50.42,50.42,0,0,0-4.12-7.69,26.21,26.21,0,0,0-3.82-4.79,23.8,23.8,0,0,0-5.38-3.89,24.51,24.51,0,0,0-35.32,17.91,25.64,25.64,0,0,0,4.58,18.42,26,26,0,0,0,17.71,10,31.11,31.11,0,0,0,8.93-.6c2.47-.43,2.66-.66,4.59-1,2.85-.53,7.15-1.34,11.1-.08,6.69,2.12,9.56,9.24,10,10.27A19,19,0,0,1,433,70.81L426,86a20.67,20.67,0,0,0,10.1,27.32A20.41,20.41,0,0,0,463.33,103.39Z"/></svg>