<svg id="Layer_1" data-name="Layer 1" xmlns="http://www.w3.org/2000/svg" xmlns:xlink="http://www.w3.org/1999/xlink" viewBox="0 0 491.17 115.65"><defs><style>.cls-1{fill:#fccccc;}.cls-2{fill:url(#linear-gradient);}.cls-3{fill:url(#linear-gradient-2);}</style><linearGradient id="linear-gradient" x1="377.4" y1="22.16" x2="461.9" y2="63.2" gradientTransform="matrix(1, 0.03, -0.03, 0.99, 1.65, -11.19)" gradientUnits="userSpaceOnUse"><stop offset="0.11" stop-color="#fff3f3"/><stop offset="0.64" stop-color="#f8c9c9"/></linearGradient><linearGradient id="linear-gradient-2" x1="4.09" y1="104.96" x2="107.17" y2="48.26" gradientUnits="userSpaceOnUse"><stop offset="0" stop-color="#fff3f3"/><stop offset="0.34" stop-color="#fddfdf"/><stop offset="0.62" stop-color="#fccccc"/></linearGradient></defs><title>Artboard 1</title><path class="cls-1" d="M166.27,115.31A21.26,21.26,0,0,1,145,94.06V21.64a21.26,21.26,0,1,1,42.52,0V94.06A21.26,21.26,0,0,1,166.27,115.31Z"/><path class="cls-1" d="M221.7,115.31a21.26,21.26,0,0,1-21.26-21.26V21.64a21.26,21.26,0,0,1,42.52,0V94.06A21.26,21.26,0,0,1,221.7,115.31Z"/><path class="cls-1" d="M313.51,28.35a29.31,29.31,0,1,1-29.31,29.31,29.34,29.34,0,0,1,29.31-29.31m0-28.35a57.66,57.66,0,1,0,57.66,57.66A57.66,57.66,0,0,0,313.51,0Z"/><path class="cls-2" d="M479.68,2.38a21.1,21.1,0,0,0-28.24,9.09l-6.06,11.78a8,8,0,0,1-2.1,2.3A8.52,8.52,0,0,1,439,27.09,10.68,10.68,0,0,1,433,26c-3.88-2-5.67-6.19-5.74-6.13a8.32,8.32,0,0,0,.82,1.37,16.6,16.6,0,0,1-1.57-3.76,36.29,36.29,0,0,0-3.15-6.75,22.26,22.26,0,0,0-3.17-4.33,19.69,19.69,0,0,0-3.47-2.9A20.91,20.91,0,0,0,410.62.78a22,22,0,0,0-18.92,4,20.55,20.55,0,0,0-5.31,6.39,21,21,0,0,0,.83,20.68,22.84,22.84,0,0,0,3.68,4.17,22.18,22.18,0,0,0,7.74,4.83,23.65,23.65,0,0,0,4.22,1,25.73,25.73,0,0,0,4.55.34,24.45,24.45,0,0,0,3-.26l.78-.13c.65-.12,1.12-.23,1.2-.25a20.23,20.23,0,0,1,6.18-.38,12.28,12.28,0,0,1,5.57,1.91,10.41,10.41,0,0,1,4.37,5.61,12.53,12.53,0,0,1,.33,3.86,17.82,17.82,0,0,1-.46,3.61L413.62,85a20.6,20.6,0,0,0,1.13,20.79,20.86,20.86,0,0,0,8.07,7.17,21.1,21.1,0,0,0,28.25-9.09l37.82-73.54A20.7,20.7,0,0,0,479.68,2.38Z"/><path class="cls-3" d="M129.27,83.77,87.12,10.65A21.26,21.26,0,1,0,50.28,31.88l4.37,7.59a20.84,20.84,0,0,1,2.24,6.05,21.59,21.59,0,0,1,.33,6,18.71,18.71,0,0,1-.8,4.33,17.59,17.59,0,0,1-2.76,5.37,16.53,16.53,0,0,1-5.06,4.34,14.41,14.41,0,0,1-6.08,1.92c-2.3.15-2.67-.47-7.25-1.42a51.72,51.72,0,0,0-8.94-1.12,26.89,26.89,0,0,0-6.31.37,24.46,24.46,0,0,0-6.48,2.23,25.53,25.53,0,0,0-6,40.68,26.35,26.35,0,0,0,18.25,7.16,25.85,25.85,0,0,0,13.06-4,26.15,26.15,0,0,0,5.94-5,32.33,32.33,0,0,0,4.81-7.94c1.11-2.35,1-2.65,1.88-4.5,1.25-2.74,3.13-6.86,6.54-9.46,5.77-4.4,13.48-2.57,14.58-2.29A19.6,19.6,0,0,1,83.76,90L92.43,105a21.26,21.26,0,1,0,36.84-21.23Z"/></svg>