<svg xmlns="http://www.w3.org/2000/svg" viewBox="0 0 876.63 73.5"><defs><style>.cls-1{fill:#fccccc;}</style></defs><title>Artboard 7</title><g id="Layer_5" data-name="Layer 5"><path class="cls-1" d="M60.24,60.18A33.68,33.68,0,0,1,35.52,70.42a33.77,33.77,0,0,1-24.8-10.24A33.77,33.77,0,0,1,.48,35.38,33.68,33.68,0,0,1,10.72,10.67,33.77,33.77,0,0,1,35.52.42,33.69,33.69,0,0,1,60.24,10.67L58.79,12.1A31.74,31.74,0,0,0,35.52,2.42,31.83,31.83,0,0,0,12.16,12.1,31.74,31.74,0,0,0,2.48,35.38a31.83,31.83,0,0,0,9.68,23.36,31.83,31.83,0,0,0,23.36,9.68,31.74,31.74,0,0,0,23.28-9.68Z"/><path class="cls-1" d="M176.24,10.67a33.69,33.69,0,0,1,10.24,24.72,33.78,33.78,0,0,1-10.24,24.8,35.05,35.05,0,0,1-49.52,0,33.77,33.77,0,0,1-10.24-24.8,33.68,33.68,0,0,1,10.24-24.72,35.05,35.05,0,0,1,49.52,0ZM151.52,2.42a31.83,31.83,0,0,0-23.36,9.68,31.74,31.74,0,0,0-9.68,23.28,31.83,31.83,0,0,0,9.68,23.36,32.93,32.93,0,0,0,46.64,0,31.83,31.83,0,0,0,9.68-23.36,31.74,31.74,0,0,0-9.68-23.28A31.74,31.74,0,0,0,151.52,2.42Z"/><path class="cls-1" d="M250.47,2.42h25.92a31.57,31.57,0,0,1,23.28,9.68,31.84,31.84,0,0,1,9.68,23.36,31.74,31.74,0,0,1-9.68,23.28,31.48,31.48,0,0,1-23.2,9.68v.08h-26Zm2,2V66.5h23.92v-.08a29.72,29.72,0,0,0,21.92-9.12,29.76,29.76,0,0,0,9-21.84,30.12,30.12,0,0,0-9-22,29.85,29.85,0,0,0-21.92-9Z"/><path class="cls-1" d="M374.47,2.42h38v2h-36v30h28v2h-28v30h36v2h-38Z"/><path class="cls-1" d="M476.48,1.42h28a16.35,16.35,0,0,1,12,5,16.35,16.35,0,0,1,5,12,16.44,16.44,0,0,1-5,12.08,16.61,16.61,0,0,1-5.2,3.6,17.08,17.08,0,0,1,12.16,16.32,16.93,16.93,0,0,1-17,17h-30Zm2,2v30h26A14.4,14.4,0,0,0,515,29a14.49,14.49,0,0,0,4.4-10.64A14.41,14.41,0,0,0,515,7.82a14.41,14.41,0,0,0-10.56-4.4Zm0,32v30h28a15,15,0,0,0,15-15,15,15,0,0,0-15-15Z"/><path class="cls-1" d="M838,2.42h38v2H840v30h28v2H840v30h36v2H838Z"/><path class="cls-1" d="M760.36,66a24.6,24.6,0,0,1-15.92,6.88q-1.12.08-2.24.08a29.75,29.75,0,0,1-19-6.4,32,32,0,0,1-6.88-8.48l1.84-.88a27.58,27.58,0,0,0,6.4,7.84A27.29,27.29,0,0,0,742,71q1.12,0,2.24-.08a22.57,22.57,0,0,0,14.64-6.32,13.12,13.12,0,0,0,3.84-6.4,13.35,13.35,0,0,0-1.36-10.72,13.54,13.54,0,0,0-8.56-6.4l-19.28-5.2a17.9,17.9,0,0,1-10.88-7.6,14.53,14.53,0,0,1-2.48-8.16,18.86,18.86,0,0,1,.64-4.72,17.47,17.47,0,0,1,8.32-11,20.53,20.53,0,0,1,8.72-2.72,29.07,29.07,0,0,1,3-.16A30,30,0,0,1,755,5a33.27,33.27,0,0,1,8.08,6.88L761.4,13A27.81,27.81,0,0,0,754,6.81a28,28,0,0,0-13-3.28,28.33,28.33,0,0,0-3,.16,18.39,18.39,0,0,0-7.76,2.48,15.43,15.43,0,0,0-7.44,9.76,15.42,15.42,0,0,0-.64,4.24,12,12,0,0,0,2.24,7A16.28,16.28,0,0,0,734,33.93L753.4,39a15.81,15.81,0,0,1,9.76,7.44,15.53,15.53,0,0,1,2.16,7.84,15.69,15.69,0,0,1-.64,4.32,15,15,0,0,1-4.24,7.44Z"/><path class="cls-1" d="M616.41,1.42l30.8,66H645l-5-10.8h-49.6l-5,10.8h-2.24l30.8-66Zm23.52,55.2L615.13,3.5l-24.8,53.12Z"/></g></svg>