<svg xmlns="http://www.w3.org/2000/svg" viewBox="0 0 636.05 66.06"><defs><style>.cls-1{fill:none;stroke:#fccccc;stroke-miterlimit:10;stroke-width:2.01px;}.cls-2{fill:#fccccc;}</style></defs><title>Artboard 7</title><g id="Layer_5" data-name="Layer 5"><line class="cls-1" x1="0.01" y1="1.04" x2="38.02" y2="1.04"/><line class="cls-1" x1="0.01" y1="33.06" x2="38.02" y2="33.06"/><line class="cls-1" y1="65.04" x2="38" y2="65.04"/><path class="cls-2" d="M507.3,33l23.92,33h-2.56L506,34.84,483.3,66h-2.56l24-33-24-33h2.56L506,31.24,528.66,0h2.56Z"/><path class="cls-2" d="M612,41.56V66h-2V41.56L586,0h2.32l22.72,39.28L633.7,0H636Z"/><path class="cls-2" d="M394.27,0l30.8,66h-2.24l-5-10.8h-49.6l-5,10.8h-2.24l30.8-66Zm23.52,55.2L393,2.11l-24.8,53.12Z"/><path class="cls-2" d="M102,0h22a23.12,23.12,0,0,1,17,7,23.12,23.12,0,0,1,7,17,23.12,23.12,0,0,1-7,17,23.12,23.12,0,0,1-17,7H104V66h-2Zm2,2V46h20a21.2,21.2,0,0,0,15.56-6.44A21.2,21.2,0,0,0,146,24a21.2,21.2,0,0,0-6.44-15.56A21.2,21.2,0,0,0,124,2Z"/><path class="cls-2" d="M214,0V66h-2V0Z"/><path class="cls-2" d="M316,0V2H296V66h-2V2H274V0Z"/></g></svg>